<svg width="35" height="35" viewBox="0 0 35 35" fill="none" xmlns="http://www.w3.org/2000/svg">
<path d="M7.2915 14.4708C7.2915 21.5464 13.4814 27.3976 16.2212 29.6409C16.6133 29.962 16.8117 30.1244 17.1042 30.2068C17.332 30.2709 17.6672 30.2709 17.895 30.2068C18.1881 30.1243 18.3851 29.9634 18.7787 29.6412C21.5185 27.3978 27.7081 21.547 27.7081 14.4715C27.7081 11.7938 26.6326 9.22549 24.7182 7.33209C22.8037 5.4387 20.2074 4.375 17.5 4.375C14.7925 4.375 12.1959 5.43886 10.2815 7.33225C8.36702 9.22565 7.2915 11.7932 7.2915 14.4708Z" stroke="white" stroke-width="2" stroke-linecap="round" stroke-linejoin="round"/>
<path d="M14.5832 13.125C14.5832 14.7358 15.889 16.0417 17.4998 16.0417C19.1107 16.0417 20.4165 14.7358 20.4165 13.125C20.4165 11.5142 19.1107 10.2083 17.4998 10.2083C15.889 10.2083 14.5832 11.5142 14.5832 13.125Z" stroke="white" stroke-width="2" stroke-linecap="round" stroke-linejoin="round"/>
</svg>
