<svg width="35" height="35" viewBox="0 0 35 35" fill="none" xmlns="http://www.w3.org/2000/svg">
<path d="M11.6666 11.6667H9.88355C7.98826 11.6667 7.04141 11.6667 6.36731 12.0534C5.77576 12.3927 5.32104 12.9287 5.0836 13.568C4.81318 14.296 4.96884 15.2299 5.28003 17.0971L5.28068 17.1006L6.64179 25.2672C6.87269 26.6526 6.98889 27.3456 7.33456 27.8654C7.63927 28.3236 8.06699 28.6858 8.56905 28.9111C9.13861 29.1666 9.84056 29.1667 11.245 29.1667H23.7552C25.1597 29.1667 25.8611 29.1666 26.4307 28.9111C26.9328 28.6858 27.3608 28.3236 27.6655 27.8654C28.0112 27.3456 28.1268 26.6526 28.3577 25.2672L29.7188 17.1006L29.7201 17.0949C30.0311 15.2292 30.1866 14.2957 29.9163 13.568C29.6789 12.9287 29.2252 12.3927 28.6337 12.0534C27.9596 11.6667 27.0112 11.6667 25.1159 11.6667H23.3333M11.6666 11.6667H23.3333M11.6666 11.6667C11.6666 8.44505 14.2783 5.83337 17.4999 5.83337C20.7216 5.83337 23.3333 8.44505 23.3333 11.6667" stroke="white" stroke-width="2" stroke-linecap="round" stroke-linejoin="round"/>
</svg>
