<svg width="35" height="35" viewBox="0 0 35 35" fill="none" xmlns="http://www.w3.org/2000/svg">
<path d="M17.5 14.2915V29.1665M17.5 14.2915C17.5 11.8412 17.5 10.6166 17.9768 9.68077C18.3963 8.85756 19.0651 8.18804 19.8883 7.76859C20.8242 7.29175 22.0495 7.29175 24.4997 7.29175H28.2914C29.1081 7.29175 29.5168 7.29175 29.8287 7.4507C30.1031 7.59051 30.3257 7.81345 30.4655 8.08785C30.6244 8.3998 30.625 8.80848 30.625 9.62522V22.4586C30.625 23.2753 30.6244 23.6831 30.4655 23.9951C30.3257 24.2695 30.1036 24.4931 29.8292 24.633C29.5176 24.7917 29.1098 24.7917 28.2946 24.7917H24.1636C22.7939 24.7917 22.1078 24.7917 21.4862 24.9805C20.9359 25.1477 20.4249 25.4213 19.9806 25.7865C19.4787 26.199 19.0984 26.7689 18.3386 27.9085L17.5 29.1665M17.5 14.2915C17.5 11.8412 17.4998 10.6166 17.0229 9.68077C16.6035 8.85756 15.9341 8.18804 15.1109 7.76859C14.1751 7.29175 12.9497 7.29175 10.4994 7.29175H6.70776C5.89102 7.29175 5.48306 7.29175 5.1711 7.4507C4.8967 7.59051 4.67376 7.81345 4.53395 8.08785C4.375 8.3998 4.375 8.80848 4.375 9.62522V22.4586C4.375 23.2753 4.375 23.6831 4.53395 23.9951C4.67376 24.2695 4.8967 24.4931 5.1711 24.633C5.48275 24.7917 5.89022 24.7917 6.70537 24.7917H10.8365C12.2062 24.7917 12.8908 24.7917 13.5125 24.9805C14.0628 25.1477 14.5762 25.4213 15.0205 25.7865C15.5204 26.1974 15.8983 26.7643 16.652 27.8947L17.5 29.1665" stroke="white" stroke-width="2" stroke-linecap="round" stroke-linejoin="round"/>
</svg>
