<svg width="60" height="60" viewBox="0 0 60 60" fill="none" xmlns="http://www.w3.org/2000/svg">
<path d="M7.5 27.5V39.5005C7.5 42.3008 7.5 43.7001 8.04497 44.7697C8.52433 45.7105 9.28868 46.4762 10.2295 46.9556C11.298 47.5 12.6975 47.5 15.4923 47.5H44.5077C47.3025 47.5 48.7 47.5 49.7685 46.9556C50.7093 46.4762 51.4762 45.7105 51.9556 44.7697C52.5 43.7012 52.5 42.3037 52.5 39.5089V27.5M7.5 27.5V22.5M7.5 27.5H52.5M7.5 22.5V20.5005C7.5 17.7002 7.5 16.2991 8.04497 15.2295C8.52433 14.2887 9.28868 13.5243 10.2295 13.045C11.2991 12.5 12.7002 12.5 15.5005 12.5H44.5005C47.3008 12.5 48.6989 12.5 49.7685 13.045C50.7093 13.5243 51.4762 14.2887 51.9556 15.2295C52.5 16.298 52.5 17.6975 52.5 20.4923V22.5M7.5 22.5H52.5M17.5 37.5H27.5M52.5 27.5V22.5" stroke="white" stroke-width="2" stroke-linecap="round" stroke-linejoin="round"/>
</svg>
