<svg width="55" height="55" viewBox="0 0 55 55" fill="none" xmlns="http://www.w3.org/2000/svg">
<path d="M6.875 25.2083V36.2088C6.875 38.7757 6.875 40.0585 7.37455 41.0389C7.81397 41.9013 8.51462 42.6032 9.37703 43.0426C10.3565 43.5417 11.6394 43.5417 14.2013 43.5417H40.7987C43.3606 43.5417 44.6416 43.5417 45.6211 43.0426C46.4835 42.6032 47.1865 41.9013 47.6259 41.0389C48.125 40.0594 48.125 38.7784 48.125 36.2165V25.2083M6.875 25.2083V20.625M6.875 25.2083H48.125M6.875 20.625V18.7921C6.875 16.2252 6.875 14.9408 7.37455 13.9604C7.81397 13.098 8.51462 12.3973 9.37703 11.9579C10.3575 11.4583 11.6419 11.4583 14.2088 11.4583H40.7921C43.359 11.4583 44.6407 11.4583 45.6211 11.9579C46.4835 12.3973 47.1865 13.098 47.6259 13.9604C48.125 14.9398 48.125 16.2227 48.125 18.7846V20.625M6.875 20.625H48.125M16.0417 34.375H25.2083M48.125 25.2083V20.625" stroke="white" stroke-width="2" stroke-linecap="round" stroke-linejoin="round"/>
</svg>
