<svg width="32" height="33" viewBox="0 0 32 33" fill="none" xmlns="http://www.w3.org/2000/svg">
  <path d="M1 1.24536H1.44724C2.23688 1.24536 2.63239 1.24536 2.95445 1.39071C3.2384 1.51885 3.48118 1.72517 3.65625 1.98679C3.85449 2.28303 3.92607 2.67861 4.06895 3.46822L7.66673 23.3504L25.0364 23.3503C25.7917 23.3503 26.1705 23.3503 26.4834 23.2141C26.7598 23.0939 26.9981 22.899 27.1751 22.6513C27.3753 22.3712 27.4601 21.9963 27.6296 21.2471L27.6309 21.2418L30.2462 9.67918L30.2468 9.67676C30.5039 8.54026 30.6327 7.97063 30.4912 7.52382C30.3671 7.13177 30.1058 6.79939 29.7593 6.58782C29.3641 6.3465 28.793 6.3465 27.6479 6.3465H5.16667M26 31.8522C25.0795 31.8522 24.3333 31.0909 24.3333 30.1518C24.3333 29.2127 25.0795 28.4514 26 28.4514C26.9205 28.4514 27.6667 29.2127 27.6667 30.1518C27.6667 31.0909 26.9205 31.8522 26 31.8522ZM9.33333 31.8522C8.41286 31.8522 7.66667 31.0909 7.66667 30.1518C7.66667 29.2127 8.41286 28.4514 9.33333 28.4514C10.2538 28.4514 11 29.2127 11 30.1518C11 31.0909 10.2538 31.8522 9.33333 31.8522Z" stroke="#A21360" stroke-width="2" stroke-linecap="round" stroke-linejoin="round"/>
</svg>
