<svg width="566" height="478" viewBox="0 0 566 478" fill="none" xmlns="http://www.w3.org/2000/svg">
    <rect width="566" height="478" />
    <path d="M311.939 50C306.157 61.5645 298.215 67.1878 286.634 67.7767C255.212 69.3744 222.819 69.3381 191.681 64.445C175.548 61.9098 160.638 58.6722 144.324 58.0196C136.842 57.7203 129.127 55.9485 121.636 56.8297C110.637 58.1238 98.6844 64.7 89.1128 69.8391C69.0363 80.6185 55.0256 98.2751 54.5268 121.718C54.3504 130.007 54.4599 138.336 54.5268 146.627C54.6244 158.729 58.4611 168.598 60.7935 180.261C67.4514 213.55 79.0322 244.202 56.5099 273.865C43.6923 290.747 26.9877 304.262 15.4191 322.175C4.94135 338.398 1.29774 352.66 3.75824 372.071C6.11733 390.681 10.5768 410.354 20.5753 426.488C32.444 445.64 56.9369 452.789 76.6587 460.677C100.395 470.172 130.928 477.166 156.619 474.163C168.585 472.764 180.136 469.169 191.84 466.468C206.734 463.031 221.656 461.1 235.231 453.617C245.712 447.841 255.668 441.012 265.533 434.262C278.109 425.657 285.711 415.139 294.408 402.849C309.32 381.778 318.83 357.358 334.388 336.85C345.919 321.651 360.319 308.338 380.08 305.754C395.735 303.707 412.681 306.813 428.31 307.975C447.011 309.366 465.63 310.831 484.393 310.831C501.908 310.831 517.92 298.135 529.926 286.557C538.6 278.193 546.099 269.251 552.852 259.269C561.668 246.237 562.847 234.777 562.847 219.448C562.847 202.081 564.75 184.772 554.755 169.472C542.159 150.189 520.199 140.45 500.338 130.682C476.175 118.799 454.788 104.476 437.195 84.1178C426.772 72.0577 424.269 59.3786 418.553 45.0895C410.407 24.7249 394.888 8.42078 372.623 4.15735C358.996 1.54793 344.217 3.96476 335.34 15.263C330.02 22.0344 319.469 30.4571 316.937 38.7434C315.262 44.2229 311.939 44.2189 311.939 50ZM311.939 50C311.939 54.0192 307.755 52.8105 307.755 56.8297" stroke="#475F30" stroke-width="5" stroke-linecap="round"/>
    </svg>