<svg width="566" height="478" viewBox="0 0 566 478" fill="none" xmlns="http://www.w3.org/2000/svg">
<g clip-path="url(#clip0_905_169)">
<path d="M311.939 49.9999C306.157 61.5644 298.215 67.1877 286.634 67.7766C255.212 69.3743 222.819 69.338 191.681 64.4449C175.548 61.9097 160.638 58.6721 144.324 58.0195C136.842 57.7202 129.127 55.9484 121.636 56.8296C110.637 58.1237 98.6844 64.6999 89.1128 69.839C69.0363 80.6184 55.0256 98.275 54.5268 121.718C54.3504 130.007 54.4599 138.336 54.5268 146.627C54.6244 158.729 58.4611 168.598 60.7935 180.261C67.4514 213.55 79.0322 244.202 56.5099 273.865C43.6923 290.747 26.9877 304.262 15.4191 322.175C4.94135 338.398 1.29774 352.66 3.75824 372.071C6.11733 390.681 10.5768 410.354 20.5753 426.488C32.444 445.64 56.9369 452.789 76.6587 460.677C100.395 470.172 130.928 477.166 156.619 474.163C168.585 472.764 180.136 469.169 191.84 466.468C206.734 463.031 221.656 461.1 235.231 453.617C245.712 447.841 255.668 441.012 265.533 434.262C278.109 425.657 285.711 415.139 294.408 402.849C309.32 381.778 318.83 357.358 334.388 336.85C345.919 321.651 360.319 308.338 380.08 305.754C395.735 303.707 412.681 306.813 428.31 307.975C447.011 309.366 465.63 310.831 484.393 310.831C501.908 310.831 517.92 298.135 529.926 286.557C538.6 278.193 546.099 269.251 552.852 259.269C561.668 246.237 562.847 234.777 562.847 219.448C562.847 202.081 564.75 184.772 554.755 169.472C542.159 150.189 520.199 140.45 500.338 130.682C476.175 118.799 454.788 104.476 437.195 84.1177C426.772 72.0576 424.269 59.3785 418.553 45.0894C410.407 24.7248 394.888 8.42066 372.623 4.15723C358.996 1.54781 344.217 3.96464 335.34 15.2629C330.02 22.0343 319.469 30.457 316.937 38.7433C315.262 44.2228 311.939 44.2188 311.939 49.9999ZM311.939 49.9999C311.939 54.0191 307.755 52.8104 307.755 56.8296Z" fill="#8AB661"/>
</g>
<defs>
<clipPath id="clip0_905_169">
<rect width="566" height="478" fill="white"/>
</clipPath>
</defs>
</svg>
