<svg width="22" height="27" viewBox="0 0 22 27" fill="none" xmlns="http://www.w3.org/2000/svg">
<path d="M21.7071 8.70711C22.0976 8.31658 22.0976 7.68342 21.7071 7.29289L15.3431 0.928932C14.9526 0.538408 14.3195 0.538408 13.9289 0.928932C13.5384 1.31946 13.5384 1.95262 13.9289 2.34315L19.5858 8L13.9289 13.6569C13.5384 14.0474 13.5384 14.6805 13.9289 15.0711C14.3195 15.4616 14.9526 15.4616 15.3431 15.0711L21.7071 8.70711ZM1 9H21V7H1V9Z" fill="#475F30"/>
<path d="M0.292892 18.2929C-0.0976315 18.6834 -0.0976315 19.3166 0.292892 19.7071L6.65685 26.0711C7.04738 26.4616 7.68054 26.4616 8.07107 26.0711C8.46159 25.6805 8.46159 25.0474 8.07107 24.6569L2.41421 19L8.07107 13.3431C8.46159 12.9526 8.46159 12.3195 8.07107 11.9289C7.68054 11.5384 7.04738 11.5384 6.65685 11.9289L0.292892 18.2929ZM21 18L1 18V20L21 20V18Z" fill="#475F30"/>
</svg>
