<svg width="42" height="42" viewBox="0 0 42 42" fill="none" xmlns="http://www.w3.org/2000/svg">
<circle cx="21" cy="21" r="21" fill="#D9D9D9"/>
<path d="M29 26.0002V20.4522C29 19.9179 28.9995 19.6506 28.9346 19.4019C28.877 19.1816 28.7825 18.9731 28.6546 18.7846C28.5102 18.572 28.3096 18.3957 27.9074 18.0438L23.1074 13.8438C22.3608 13.1905 21.9875 12.8641 21.5674 12.7398C21.1972 12.6303 20.8026 12.6303 20.4324 12.7398C20.0126 12.864 19.6398 13.1901 18.8944 13.8424L14.0928 18.0438C13.6906 18.3957 13.49 18.572 13.3457 18.7846C13.2178 18.9731 13.1225 19.1816 13.065 19.4019C13 19.6506 13 19.9179 13 20.4522V26.0002C13 26.932 13 27.3978 13.1522 27.7654C13.3552 28.2554 13.7443 28.6452 14.2344 28.8482C14.6019 29.0005 15.0679 29.0005 15.9997 29.0005C16.9316 29.0005 17.3981 29.0005 17.7656 28.8482C18.2557 28.6452 18.6447 28.2555 18.8477 27.7654C18.9999 27.3979 19 26.932 19 26.0001V25.0001C19 23.8955 19.8954 23.0001 21 23.0001C22.1046 23.0001 23 23.8955 23 25.0001V26.0001C23 26.932 23 27.3979 23.1522 27.7654C23.3552 28.2555 23.7443 28.6452 24.2344 28.8482C24.6019 29.0005 25.0679 29.0005 25.9997 29.0005C26.9316 29.0005 27.3981 29.0005 27.7656 28.8482C28.2557 28.6452 28.6447 28.2554 28.8477 27.7654C28.9999 27.3978 29 26.932 29 26.0002Z" stroke="white" stroke-width="2" stroke-linecap="round" stroke-linejoin="round"/>
</svg>
