<svg width="42" height="42" viewBox="0 0 42 42" fill="none" xmlns="http://www.w3.org/2000/svg">
<circle cx="21" cy="21" r="21" fill="#475F30"/>
<path d="M16.2727 29.3635C17.5781 29.3635 18.6363 28.3053 18.6363 26.9999C18.6363 25.6944 17.5781 24.6362 16.2727 24.6362C14.9673 24.6362 13.9091 25.6944 13.9091 26.9999C13.9091 28.3053 14.9673 29.3635 16.2727 29.3635Z" stroke="white" stroke-width="2" stroke-miterlimit="1.5" stroke-linecap="round" stroke-linejoin="round"/>
<path d="M28.0909 29.3635C29.3963 29.3635 30.4545 28.3053 30.4545 26.9999C30.4545 25.6944 29.3963 24.6362 28.0909 24.6362C26.7854 24.6362 25.7272 25.6944 25.7272 26.9999C25.7272 28.3053 26.7854 29.3635 28.0909 29.3635Z" stroke="white" stroke-width="2" stroke-miterlimit="1.5" stroke-linecap="round" stroke-linejoin="round"/>
<path d="M18.6955 27H24.5455V14.7091C24.5455 14.3175 24.228 14 23.8364 14H8" stroke="white" stroke-width="2" stroke-linecap="round"/>
<path d="M13.4955 27H11.0727C10.6811 27 10.3636 26.6826 10.3636 26.2909V20.5" stroke="white" stroke-width="2" stroke-linecap="round"/>
<path d="M9.18182 17.5457H13.9091" stroke="white" stroke-width="2" stroke-linecap="round" stroke-linejoin="round"/>
<path d="M24.5455 17.5457H31.1756C31.4558 17.5457 31.7098 17.7107 31.8236 17.9668L33.9389 22.7263C33.9792 22.817 34 22.9151 34 23.0143V26.2911C34 26.6828 33.6826 27.0002 33.2909 27.0002H31.0455" stroke="white" stroke-width="2" stroke-linecap="round"/>
<path d="M24.5455 27H25.7273" stroke="white" stroke-width="2" stroke-linecap="round"/>
</svg>
