<svg width="50" height="50" viewBox="0 0 50 50" fill="none" xmlns="http://www.w3.org/2000/svg">
<path d="M12.5 37.4999C12.6326 37.5 12.7693 37.5 12.9102 37.5H25M12.5 37.4999C10.4411 37.4983 9.36112 37.4725 8.52458 37.0463C7.74057 36.6468 7.10361 36.0077 6.70414 35.2237C6.25 34.3324 6.25 33.1673 6.25 30.8337V19.1671C6.25 16.8335 6.25 15.6659 6.70414 14.7746C7.10361 13.9906 7.74057 13.3536 8.52458 12.9541C9.41588 12.5 10.5835 12.5 12.9171 12.5H37.0837C39.4173 12.5 40.5824 12.5 41.4737 12.9541C42.2577 13.3536 42.8968 13.9906 43.2963 14.7746C43.75 15.665 43.75 16.8312 43.75 19.1602V30.8398C43.75 33.1688 43.75 34.3333 43.2963 35.2237C42.8968 36.0077 42.2577 36.6468 41.4737 37.0463C40.5833 37.5 39.4188 37.5 37.0898 37.5H25M12.5 37.4999C12.5001 35.1988 15.2983 33.3333 18.75 33.3333C22.2018 33.3333 25 35.1988 25 37.5M12.5 37.4999C12.5 37.4999 12.5 37.4999 12.5 37.4999ZM37.5 29.1667H29.1667M37.5 22.9167H31.25M18.75 27.0833C16.4488 27.0833 14.5833 25.2179 14.5833 22.9167C14.5833 20.6155 16.4488 18.75 18.75 18.75C21.0512 18.75 22.9167 20.6155 22.9167 22.9167C22.9167 25.2179 21.0512 27.0833 18.75 27.0833Z" stroke="#F3F3F3" stroke-width="2" stroke-linecap="round" stroke-linejoin="round"/>
</svg>
