<svg width="45" height="45" viewBox="0 0 45 45" fill="none" xmlns="http://www.w3.org/2000/svg">
<path d="M21.5625 28.125C20.0092 28.125 18.75 26.8658 18.75 25.3125C18.75 23.7592 20.0092 22.5 21.5625 22.5M5.625 29.6254V15.3754C5.625 13.2752 5.625 12.2243 6.03373 11.4221C6.39325 10.7165 6.96651 10.1433 7.67212 9.78373C8.47429 9.375 9.52517 9.375 11.6254 9.375H33.3754C35.4756 9.375 36.5242 9.375 37.3264 9.78373C38.032 10.1433 38.6072 10.7165 38.9667 11.4221C39.375 12.2235 39.375 13.2731 39.375 15.3692V29.6317C39.375 31.7278 39.375 32.7759 38.9667 33.5773C38.6072 34.2829 38.032 34.8571 37.3264 35.2167C36.525 35.625 35.4769 35.625 33.3808 35.625H11.6192C9.52311 35.625 8.4735 35.625 7.67212 35.2167C6.96651 34.8571 6.39325 34.2829 6.03373 33.5773C5.625 32.7751 5.625 31.7256 5.625 29.6254ZM31.875 25.3125C31.875 26.8658 30.6158 28.125 29.0625 28.125C27.5092 28.125 26.25 26.8658 26.25 25.3125C26.25 23.7592 27.5092 22.5 29.0625 22.5C30.6158 22.5 31.875 23.7592 31.875 25.3125Z" stroke="#475F30" stroke-width="2" stroke-linecap="round" stroke-linejoin="round"/>
</svg>
