<svg width="30" height="30" viewBox="0 0 30 30" fill="none" xmlns="http://www.w3.org/2000/svg">
<path d="M17.5 12.5V21.25M12.5 12.5V21.25M7.5 7.5V22.25C7.5 23.6501 7.5 24.3497 7.77248 24.8845C8.01217 25.3549 8.39434 25.7381 8.86475 25.9778C9.399 26.25 10.0987 26.25 11.4961 26.25H18.5039C19.9013 26.25 20.6 26.25 21.1342 25.9778C21.6046 25.7381 21.9881 25.3549 22.2278 24.8845C22.5 24.3502 22.5 23.6513 22.5 22.2539V7.5M7.5 7.5H10M7.5 7.5H5M10 7.5H20M10 7.5C10 6.33515 10 5.75301 10.1903 5.29358C10.444 4.68101 10.9304 4.19404 11.543 3.9403C12.0024 3.75 12.5851 3.75 13.75 3.75H16.25C17.4149 3.75 17.9973 3.75 18.4567 3.9403C19.0693 4.19404 19.5558 4.68101 19.8096 5.29358C19.9999 5.75301 20 6.33515 20 7.5M20 7.5H22.5M22.5 7.5H25" stroke="#475F30" stroke-width="2" stroke-linecap="round" stroke-linejoin="round"/>
</svg>
