<svg width="18" height="19" viewBox="0 0 18 19" fill="none" xmlns="http://www.w3.org/2000/svg">
<path d="M17 15.0002V9.45222C17 8.91789 16.9995 8.65057 16.9346 8.40193C16.877 8.18159 16.7825 7.97307 16.6546 7.78464C16.5102 7.57201 16.3096 7.39569 15.9074 7.04383L11.1074 2.84383C10.3608 2.19054 9.98751 1.86406 9.56738 1.73982C9.19719 1.63035 8.80261 1.63035 8.43242 1.73982C8.01261 1.86397 7.63985 2.19014 6.89436 2.84244L2.09277 7.04383C1.69064 7.39569 1.49004 7.57201 1.3457 7.78464C1.21779 7.97307 1.12255 8.18159 1.06497 8.40193C1 8.65057 1 8.91788 1 9.45222V15.0002C1 15.932 1 16.3978 1.15224 16.7654C1.35523 17.2554 1.74432 17.6452 2.23438 17.8482C2.60192 18.0005 3.06786 18.0005 3.99974 18.0005C4.93163 18.0005 5.39808 18.0005 5.76562 17.8482C6.25568 17.6452 6.64467 17.2555 6.84766 16.7654C6.9999 16.3979 7 15.932 7 15.0001V14.0001C7 12.8955 7.89543 12.0001 9 12.0001C10.1046 12.0001 11 12.8955 11 14.0001V15.0001C11 15.932 11 16.3979 11.1522 16.7654C11.3552 17.2555 11.7443 17.6452 12.2344 17.8482C12.6019 18.0005 13.0679 18.0005 13.9997 18.0005C14.9316 18.0005 15.3981 18.0005 15.7656 17.8482C16.2557 17.6452 16.6447 17.2554 16.8477 16.7654C16.9999 16.3978 17 15.932 17 15.0002Z" stroke="white" stroke-width="2" stroke-linecap="round" stroke-linejoin="round"/>
</svg>
