<svg width="62" height="31" viewBox="0 0 62 31" fill="none" xmlns="http://www.w3.org/2000/svg">
<path d="M20.2292 29.6147C23.1977 29.6147 25.6042 27.68 25.6042 25.2932C25.6042 22.9064 23.1977 20.9716 20.2292 20.9716C17.2607 20.9716 14.8542 22.9064 14.8542 25.2932C14.8542 27.68 17.2607 29.6147 20.2292 29.6147Z" stroke="white" stroke-width="2" stroke-miterlimit="1.5" stroke-linecap="round" stroke-linejoin="round"/>
<path d="M47.1042 29.6147C50.0728 29.6147 52.4792 27.68 52.4792 25.2932C52.4792 22.9064 50.0728 20.9716 47.1042 20.9716C44.1356 20.9716 41.7292 22.9064 41.7292 25.2932C41.7292 27.68 44.1356 29.6147 47.1042 29.6147Z" stroke="white" stroke-width="2" stroke-miterlimit="1.5" stroke-linecap="round" stroke-linejoin="round"/>
<path d="M25.7386 25.2932H39.0417V2.82112C39.0417 2.10511 38.3198 1.52466 37.4292 1.52466H1.41669" stroke="white" stroke-width="2" stroke-linecap="round"/>
<path d="M13.9136 25.2932H8.40419C7.51363 25.2932 6.79169 24.7128 6.79169 23.9967V13.4089" stroke="white" stroke-width="2" stroke-linecap="round"/>
<path d="M4.10419 8.00697H14.8542" stroke="white" stroke-width="2" stroke-linecap="round" stroke-linejoin="round"/>
<path d="M39.0417 8.00697H54.1188C54.756 8.00697 55.3336 8.3087 55.5924 8.7769L60.4027 17.4789C60.4944 17.6449 60.5417 17.8242 60.5417 18.0055V23.9967C60.5417 24.7128 59.8198 25.2932 58.9292 25.2932H53.8229" stroke="white" stroke-width="2" stroke-linecap="round"/>
<path d="M39.0417 25.2932H41.7292" stroke="white" stroke-width="2" stroke-linecap="round"/>
</svg>
