<svg width="40" height="40" viewBox="0 0 40 40" fill="none" xmlns="http://www.w3.org/2000/svg">
<path d="M23.3333 10H10C8.44686 10 7.66986 10 7.05729 10.2537C6.24053 10.592 5.59205 11.2413 5.25373 12.0581C5 12.6707 5 13.4472 5 15.0004C7.76142 15.0004 10 17.2382 10 19.9996C10 22.761 7.76142 25 5 25C5 26.5531 5 27.3297 5.25373 27.9423C5.59205 28.759 6.24053 29.4078 7.05729 29.7461C7.66986 29.9998 8.44686 30 10 30H23.3333M23.3333 10H30C31.5531 10 32.3297 10 32.9423 10.2537C33.759 10.592 34.4078 11.2413 34.7461 12.0581C34.9998 12.6707 34.9998 13.4472 34.9998 15.0004C32.2384 15.0004 30 17.2386 30 20C30 22.7614 32.2384 25 34.9998 25C34.9998 26.5531 34.9998 27.3297 34.7461 27.9423C34.4078 28.759 33.759 29.4078 32.9423 29.7461C32.3297 29.9998 31.5531 30 30 30H23.3333M23.3333 10V30" stroke="white" stroke-width="2" stroke-linecap="round" stroke-linejoin="round"/>
</svg>
