<svg width="40" height="40" viewBox="0 0 40 40" fill="none" xmlns="http://www.w3.org/2000/svg">
<path d="M6.66667 9.99992L16.8461 17.687L16.8495 17.6898C17.9797 18.5187 18.5452 18.9334 19.1646 19.0936C19.712 19.2352 20.2875 19.2352 20.835 19.0936C21.4549 18.9333 22.022 18.5174 23.1543 17.687C23.1543 17.687 29.6835 12.6765 33.3333 9.99992M5 26.3336V13.6669C5 11.8001 5 10.866 5.36331 10.1529C5.68289 9.52571 6.19245 9.01614 6.81966 8.69656C7.5327 8.33325 8.46682 8.33325 10.3337 8.33325H29.667C31.5338 8.33325 32.466 8.33325 33.179 8.69656C33.8062 9.01614 34.3175 9.52571 34.637 10.1529C35 10.8653 35 11.7982 35 13.6614V26.3392C35 28.2024 35 29.134 34.637 29.8464C34.3175 30.4736 33.8062 30.9841 33.179 31.3036C32.4667 31.6666 31.535 31.6666 29.6718 31.6666H10.3282C8.46499 31.6666 7.532 31.6666 6.81966 31.3036C6.19245 30.9841 5.68289 30.4736 5.36331 29.8464C5 29.1334 5 28.2004 5 26.3336Z" stroke="#F3F3F3" stroke-width="2" stroke-linecap="round" stroke-linejoin="round"/>
</svg>
