<svg width="54" height="42" viewBox="0 0 54 42" fill="none" xmlns="http://www.w3.org/2000/svg">
<path d="M3.85714 3.85714L21.3075 17.035L21.3134 17.0399C23.251 18.4608 24.2204 19.1717 25.2822 19.4463C26.2207 19.6891 27.2072 19.6891 28.1456 19.4463C29.2084 19.1715 30.1806 18.4585 32.1217 17.035C32.1217 17.035 43.3145 8.44554 49.5714 3.85714M1 31.8577V10.1434C1 6.94312 1 5.34177 1.62282 4.11942C2.17067 3.04421 3.04421 2.17067 4.11942 1.62282C5.34177 1 6.94312 1 10.1434 1H43.2863C46.4866 1 48.0845 1 49.3068 1.62282C50.3821 2.17067 51.2585 3.04421 51.8064 4.11942C52.4286 5.34058 52.4286 6.93998 52.4286 10.134V31.8674C52.4286 35.0614 52.4286 36.6585 51.8064 37.8797C51.2585 38.9549 50.3821 39.8299 49.3068 40.3778C48.0857 41 46.4886 41 43.2945 41H10.134C6.93998 41 5.34058 41 4.11942 40.3778C3.04421 39.8299 2.17067 38.9549 1.62282 37.8797C1 36.6573 1 35.058 1 31.8577Z" stroke="#475F30" stroke-width="2" stroke-linecap="round" stroke-linejoin="round"/>
</svg>
