<svg width="30" height="30" viewBox="0 0 30 30" fill="none" xmlns="http://www.w3.org/2000/svg">
<path d="M15 0C6.72923 0 0 6.72923 0 15C0 23.2708 6.72923 30 15 30C23.2708 30 30 23.2708 30 15C30 6.72923 23.2708 0 15 0ZM11.1531 4.61538H18.8447C22.4504 4.61538 25.3846 7.54848 25.3846 11.1531V18.8447C25.3846 22.4504 22.4515 25.3846 18.8469 25.3846H11.1553C7.54958 25.3846 4.61538 22.4515 4.61538 18.8469V11.1553C4.61538 7.54958 7.54848 4.61538 11.1531 4.61538ZM11.1531 6.92308C8.82117 6.92308 6.92308 8.82227 6.92308 11.1553V18.8469C6.92308 21.1788 8.82227 23.0769 11.1553 23.0769H18.8469C21.1788 23.0769 23.0769 21.1777 23.0769 18.8447V11.1531C23.0769 8.82117 21.1777 6.92308 18.8447 6.92308H11.1531ZM20.3861 8.8454C20.8107 8.8454 21.1546 9.18927 21.1546 9.61388C21.1546 10.0385 20.8107 10.3846 20.3861 10.3846C19.9615 10.3846 19.6154 10.0385 19.6154 9.61388C19.6154 9.18927 19.9615 8.8454 20.3861 8.8454ZM15 9.23077C18.1812 9.23077 20.7692 11.8188 20.7692 15C20.7692 18.1812 18.1812 20.7692 15 20.7692C11.8188 20.7692 9.23077 18.1812 9.23077 15C9.23077 11.8188 11.8188 9.23077 15 9.23077ZM15 11.5385C14.0819 11.5385 13.2015 11.9032 12.5523 12.5523C11.9032 13.2015 11.5385 14.0819 11.5385 15C11.5385 15.9181 11.9032 16.7985 12.5523 17.4477C13.2015 18.0968 14.0819 18.4615 15 18.4615C15.9181 18.4615 16.7985 18.0968 17.4477 17.4477C18.0968 16.7985 18.4615 15.9181 18.4615 15C18.4615 14.0819 18.0968 13.2015 17.4477 12.5523C16.7985 11.9032 15.9181 11.5385 15 11.5385Z" fill="white"/>
</svg>
