<svg width="50" height="50" viewBox="0 0 50 50" fill="none" xmlns="http://www.w3.org/2000/svg">
<circle cx="25" cy="25" r="25" fill="#CCCCCC"/>
<path d="M13.3333 21.5381C13.3333 29.6245 20.4074 36.3115 23.5386 38.8754C23.9867 39.2423 24.2134 39.4279 24.5478 39.5221C24.8081 39.5954 25.1912 39.5954 25.4516 39.5221C25.7865 39.4278 26.0117 39.2439 26.4615 38.8756C29.5927 36.3118 36.6665 29.6252 36.6665 21.5388C36.6665 18.4786 35.4374 15.5434 33.2494 13.3795C31.0615 11.2157 28.0942 10 25.0001 10C21.9059 10 18.9383 11.2158 16.7503 13.3797C14.5624 15.5436 13.3333 18.4779 13.3333 21.5381Z" stroke="#475F30" stroke-width="2" stroke-linecap="round" stroke-linejoin="round"/>
<path d="M21.6666 20C21.6666 21.8409 23.159 23.3333 24.9999 23.3333C26.8409 23.3333 28.3333 21.8409 28.3333 20C28.3333 18.1591 26.8409 16.6667 24.9999 16.6667C23.159 16.6667 21.6666 18.1591 21.6666 20Z" stroke="#475F30" stroke-width="2" stroke-linecap="round" stroke-linejoin="round"/>
</svg>
