<svg width="35" height="35" viewBox="0 0 35 35" fill="none" xmlns="http://www.w3.org/2000/svg">
<path d="M11.6668 5.8335H10.5004C8.86696 5.8335 8.04961 5.8335 7.4257 6.15139C6.87689 6.43102 6.43102 6.87689 6.15139 7.4257C5.8335 8.04961 5.8335 8.86696 5.8335 10.5004V24.5004C5.8335 26.1339 5.8335 26.9502 6.15139 27.5742C6.43102 28.123 6.87689 28.5696 7.4257 28.8492C8.049 29.1668 8.86536 29.1668 10.4957 29.1668H11.6668M11.6668 5.8335H24.5004C26.1339 5.8335 26.9495 5.8335 27.5734 6.15139C28.1223 6.43102 28.5696 6.87689 28.8492 7.4257C29.1668 8.049 29.1668 8.86536 29.1668 10.4957V24.5054C29.1668 26.1357 29.1668 26.9509 28.8492 27.5742C28.5696 28.123 28.1223 28.5696 27.5734 28.8492C26.9501 29.1668 26.135 29.1668 24.5047 29.1668H11.6668M11.6668 5.8335V29.1668M17.5002 16.0418H23.3335M17.5002 11.6668H23.3335" stroke="white" stroke-width="2" stroke-linecap="round" stroke-linejoin="round"/>
</svg>
