<svg width="40" height="40" viewBox="0 0 40 40" fill="none" xmlns="http://www.w3.org/2000/svg">
    <path
        d="M15.8374 7.09536C15.3312 5.82984 14.1055 5 12.7425 5H8.15789C6.41384 5 5 6.4135 5 8.15755C5 22.982 17.018 35 31.8424 35C33.5865 35 35 33.586 35 31.842L35.0008 27.2566C35.0008 25.8936 34.1712 24.6681 32.9056 24.1619L28.5115 22.4049C27.3748 21.9502 26.0805 22.1548 25.1399 22.9386L24.0059 23.8845C22.6814 24.9881 20.7327 24.9004 19.5137 23.6813L16.3204 20.4851C15.1013 19.266 15.0112 17.3189 16.1149 15.9945L17.0605 14.8605C17.8444 13.9199 18.0508 12.6253 17.5961 11.4885L15.8374 7.09536Z"
        stroke="#475F30" stroke-width="1.5" stroke-linecap="round" stroke-linejoin="round"
        fill="transparent" />
</svg>