<svg width="50" height="50" viewBox="0 0 50 50" fill="none" xmlns="http://www.w3.org/2000/svg">
<circle cx="25" cy="25" r="25" fill="#CCCCCC"/>
<path d="M13.333 21.5381C13.333 29.6245 20.4071 36.3115 23.5383 38.8754C23.9864 39.2423 24.2132 39.4279 24.5475 39.5221C24.8079 39.5954 25.191 39.5954 25.4513 39.5221C25.7863 39.4278 26.0115 39.2439 26.4613 38.8756C29.5925 36.3118 36.6662 29.6252 36.6662 21.5388C36.6662 18.4786 35.4371 15.5434 33.2492 13.3795C31.0613 11.2157 28.094 10 24.9998 10C21.9056 10 18.938 11.2158 16.7501 13.3797C14.5622 15.5436 13.333 18.4779 13.333 21.5381Z" stroke="#475F30" stroke-width="2" stroke-linecap="round" stroke-linejoin="round"/>
<path d="M21.6663 20C21.6663 21.8409 23.1587 23.3333 24.9997 23.3333C26.8406 23.3333 28.333 21.8409 28.333 20C28.333 18.1591 26.8406 16.6667 24.9997 16.6667C23.1587 16.6667 21.6663 18.1591 21.6663 20Z" stroke="#475F30" stroke-width="2" stroke-linecap="round" stroke-linejoin="round"/>
</svg>
