<svg width="23" height="29" viewBox="0 0 23 29" fill="none" xmlns="http://www.w3.org/2000/svg">
<path d="M11.4998 23.25V18.875M11.4998 18.875V14.5M11.4998 18.875H7.12484M11.4998 18.875H15.8748M12.9582 1.37627C12.8189 1.375 12.6625 1.375 12.4838 1.375H5.95846C4.32497 1.375 3.50762 1.375 2.88371 1.6929C2.3349 1.97253 1.88903 2.4184 1.6094 2.9672C1.2915 3.59111 1.2915 4.40846 1.2915 6.04195V22.9586C1.2915 24.5921 1.2915 25.4084 1.6094 26.0323C1.88903 26.5811 2.3349 27.0278 2.88371 27.3074C3.50701 27.625 4.32339 27.625 5.95371 27.625L17.046 27.625C18.6763 27.625 19.4915 27.625 20.1148 27.3074C20.6636 27.0278 21.111 26.5811 21.3906 26.0323C21.7082 25.409 21.7082 24.5938 21.7082 22.9635V10.6C21.7082 10.421 21.7081 10.2644 21.7068 10.125M12.9582 1.37627C13.3747 1.38006 13.6382 1.39519 13.8898 1.45559C14.1874 1.52704 14.4717 1.64518 14.7327 1.80509C15.0269 1.98541 15.2796 2.23807 15.7837 2.74219L20.3417 7.30018C20.8461 7.80463 21.0969 8.05615 21.2773 8.35049C21.4372 8.61145 21.5555 8.896 21.627 9.1936C21.6874 9.44506 21.7028 9.70866 21.7068 10.125M12.9582 1.37627V5.45833C12.9582 7.09182 12.9582 7.90799 13.2761 8.5319C13.5557 9.08071 14.0016 9.52778 14.5504 9.80741C15.1737 10.125 15.99 10.125 17.6203 10.125H21.7068M21.7068 10.125H21.7085" stroke="white" stroke-width="2" stroke-linecap="round" stroke-linejoin="round"/>
</svg>
