<svg width="35" height="35" viewBox="0 0 35 35" fill="none" xmlns="http://www.w3.org/2000/svg">
<path d="M16.4998 26.25C16.4998 26.8023 16.9476 27.25 17.4998 27.25C18.0521 27.25 18.4998 26.8023 18.4998 26.25H16.4998ZM18.4998 17.5C18.4998 16.9477 18.0521 16.5 17.4998 16.5C16.9476 16.5 16.4998 16.9477 16.4998 17.5H18.4998ZM13.1248 20.875C12.5726 20.875 12.1248 21.3227 12.1248 21.875C12.1248 22.4273 12.5726 22.875 13.1248 22.875V20.875ZM21.8748 22.875C22.4271 22.875 22.8748 22.4273 22.8748 21.875C22.8748 21.3227 22.4271 20.875 21.8748 20.875V22.875ZM26.3417 10.3002L27.0488 9.59308L27.0488 9.59308L26.3417 10.3002ZM21.7837 5.74219L21.0766 6.44929L21.0766 6.44929L21.7837 5.74219ZM7.6094 29.0323L6.7184 29.4863L6.7184 29.4863L7.6094 29.0323ZM11.9537 30.625L11.9537 31.625L11.9537 31.625L11.9537 30.625ZM8.88371 30.3074L9.3377 29.4164L9.3377 29.4164L8.88371 30.3074ZM8.88371 4.6929L9.3377 5.5839L9.3377 5.5839L8.88371 4.6929ZM7.6094 5.9672L6.71839 5.51321L6.71839 5.51321L7.6094 5.9672ZM20.7327 4.80509L20.2102 5.65773L20.2102 5.65773L20.7327 4.80509ZM19.8898 4.45559L20.1233 3.48322L20.1233 3.48322L19.8898 4.45559ZM27.627 12.1936L26.6546 12.427L26.6546 12.427L27.627 12.1936ZM27.2773 11.3505L28.13 10.828L28.13 10.828L27.2773 11.3505ZM27.3906 29.0323L28.2816 29.4863L28.2816 29.4863L27.3906 29.0323ZM23.046 30.625L23.046 29.625L23.046 29.625L23.046 30.625ZM26.1148 30.3074L26.5688 31.1984L26.5688 31.1984L26.1148 30.3074ZM23.6203 13.125L23.6203 12.125L23.6203 12.125L23.6203 13.125ZM20.5504 12.8074L20.0964 13.6984L20.0964 13.6984L20.5504 12.8074ZM19.2761 11.5319L20.1671 11.0779L20.1671 11.0779L19.2761 11.5319ZM27.7085 14.125C28.2607 14.125 28.7085 13.6773 28.7085 13.125C28.7085 12.5727 28.2607 12.125 27.7085 12.125V14.125ZM18.4998 26.25V21.875H16.4998V26.25H18.4998ZM18.4998 21.875V17.5H16.4998V21.875H18.4998ZM13.1248 22.875H17.4998V20.875H13.1248V22.875ZM17.4998 22.875H21.8748V20.875H17.4998V22.875ZM27.0488 9.59308L22.4908 5.03508L21.0766 6.44929L25.6346 11.0073L27.0488 9.59308ZM18.4838 3.375H11.9585V5.375H18.4838V3.375ZM6.2915 9.04195V25.9586H8.2915V9.04195H6.2915ZM6.2915 25.9586C6.2915 26.7588 6.29073 27.4191 6.33456 27.9555C6.37936 28.5037 6.47567 29.0099 6.7184 29.4863L8.50041 28.5783C8.42524 28.4308 8.3626 28.217 8.32792 27.7926C8.29228 27.3565 8.2915 26.7919 8.2915 25.9586H6.2915ZM11.9537 29.625C11.1221 29.625 10.5581 29.6242 10.1225 29.5886C9.69852 29.554 9.48486 29.4914 9.3377 29.4164L8.42972 31.1984C8.90586 31.441 9.41204 31.5372 9.95963 31.582C10.4956 31.6258 11.155 31.625 11.9537 31.625V29.625ZM6.7184 29.4863C7.09361 30.2227 7.69219 30.8226 8.42972 31.1984L9.3377 29.4164C8.97762 29.2329 8.68445 28.9395 8.50041 28.5783L6.7184 29.4863ZM11.9585 3.375C11.1582 3.375 10.4977 3.37422 9.96108 3.41806C9.41281 3.46284 8.9062 3.55911 8.42972 3.80189L9.3377 5.5839C9.48513 5.50879 9.69914 5.44611 10.1239 5.41142C10.5603 5.37578 11.1252 5.375 11.9585 5.375V3.375ZM8.2915 9.04195C8.2915 8.20872 8.29228 7.64375 8.32792 7.20739C8.36261 6.78264 8.42529 6.56862 8.50041 6.42119L6.71839 5.51321C6.47562 5.98969 6.37934 6.49631 6.33456 7.04458C6.29073 7.58124 6.2915 8.2417 6.2915 9.04195H8.2915ZM8.42972 3.80189C7.69275 4.1774 7.0939 4.77624 6.71839 5.51321L8.50041 6.42119C8.68416 6.06055 8.97705 5.76766 9.3377 5.5839L8.42972 3.80189ZM22.4908 5.03508C22.0204 4.56467 21.6738 4.209 21.2552 3.95245L20.2102 5.65773C20.38 5.76181 20.5388 5.91147 21.0766 6.44929L22.4908 5.03508ZM18.4838 5.375C18.6638 5.375 18.8153 5.37501 18.9491 5.37623L18.9673 3.37631C18.8225 3.37499 18.6612 3.375 18.4838 3.375V5.375ZM18.9491 5.37623C19.3595 5.37996 19.5242 5.39622 19.6564 5.42796L20.1233 3.48322C19.7523 3.39416 19.3899 3.38016 18.9673 3.37631L18.9491 5.37623ZM21.2552 3.95245C20.9054 3.73812 20.5237 3.57935 20.1233 3.48322L19.6564 5.42796C19.8512 5.47473 20.038 5.55223 20.2102 5.65773L21.2552 3.95245ZM28.7082 13.6C28.7082 13.4221 28.7081 13.2606 28.7068 13.1155L26.7069 13.1345C26.7081 13.2683 26.7082 13.4199 26.7082 13.6H28.7082ZM28.7068 13.1155C28.7027 12.6923 28.6883 12.3304 28.5994 11.9602L26.6546 12.427C26.6865 12.5597 26.703 12.725 26.7069 13.1345L28.7068 13.1155ZM25.6346 11.0073C26.1717 11.5444 26.3203 11.7027 26.4247 11.873L28.13 10.828C27.8735 10.4096 27.5206 10.0649 27.0488 9.59308L25.6346 11.0073ZM28.5994 11.9602C28.5032 11.5596 28.3442 11.1776 28.13 10.828L26.4247 11.873C26.5302 12.0453 26.6079 12.2324 26.6546 12.427L28.5994 11.9602ZM26.7082 25.9635C26.7082 26.7952 26.7074 27.3588 26.6718 27.7941C26.6372 28.2176 26.5746 28.4311 26.4996 28.5783L28.2816 29.4863C28.5241 29.0103 28.6204 28.5045 28.6651 27.9571C28.709 27.4214 28.7082 26.7622 28.7082 25.9635H26.7082ZM23.046 31.625C23.8446 31.625 24.5038 31.6258 25.0395 31.582C25.587 31.5372 26.0928 31.441 26.5688 31.1984L25.6608 29.4164C25.5135 29.4914 25.3001 29.554 24.8765 29.5886C24.4412 29.6242 23.8777 29.625 23.046 29.625V31.625ZM26.4996 28.5783C26.3161 28.9385 26.022 29.2324 25.6608 29.4164L26.5688 31.1984C27.3052 30.8232 27.9058 30.2238 28.2816 29.4863L26.4996 28.5783ZM19.9582 8.45833V4.37627H17.9582V8.45833H19.9582ZM23.6203 12.125C22.7887 12.125 22.2248 12.1242 21.7892 12.0886C21.3652 12.054 21.1515 11.9914 21.0044 11.9164L20.0964 13.6984C20.5725 13.941 21.0787 14.0372 21.6263 14.082C22.1623 14.1258 22.8217 14.125 23.6203 14.125L23.6203 12.125ZM17.9582 8.45833C17.9582 9.25857 17.9574 9.91876 18.0012 10.4552C18.046 11.0033 18.1423 11.5095 18.3851 11.9859L20.1671 11.0779C20.0919 10.9304 20.0293 10.7166 19.9946 10.2923C19.9589 9.85622 19.9582 9.29159 19.9582 8.45833H17.9582ZM21.0044 11.9164C20.6446 11.7331 20.3513 11.4394 20.1671 11.0779L18.3851 11.9859C18.7601 12.722 19.3585 13.3225 20.0964 13.6984L21.0044 11.9164ZM28.7082 25.9635V13.6H26.7082V25.9635H28.7082ZM11.9537 31.625L23.046 31.625L23.046 29.625L11.9537 29.625L11.9537 31.625ZM27.7085 12.125H27.7068V14.125H27.7085V12.125ZM27.7068 12.125H23.6203V14.125H27.7068V12.125Z" fill="white"/>
</svg>
