<svg width="30" height="30" viewBox="0 0 30 30" fill="none" xmlns="http://www.w3.org/2000/svg">
<path d="M21.25 26.2502L8.75 26.25M21.25 26.2502L22.2539 26.25C23.6513 26.25 24.35 26.25 24.8842 25.9778C25.3547 25.7381 25.7381 25.3554 25.9778 24.885C26.25 24.3508 26.25 23.6513 26.25 22.2539V11.5244C26.25 10.9634 26.25 10.6815 26.1902 10.4138C26.1368 10.175 26.0491 9.94565 25.929 9.73244C25.7958 9.49592 25.6088 9.28819 25.2411 8.87973L21.7971 5.05301C21.3711 4.57967 21.1552 4.33976 20.896 4.16748C20.6628 4.0125 20.4053 3.89823 20.1341 3.82858C19.8281 3.75 19.4998 3.75 18.8438 3.75H7.75024C6.35011 3.75 5.64953 3.75 5.11475 4.02248C4.64434 4.26217 4.26217 4.64434 4.02248 5.11475C3.75 5.64953 3.75 6.35011 3.75 7.75024V22.2502C3.75 23.6504 3.75 24.3495 4.02248 24.8842C4.26217 25.3547 4.64434 25.7381 5.11475 25.9778C5.649 26.25 6.34874 26.25 7.74614 26.25H8.75M21.25 26.2502V21.4961C21.25 20.0987 21.25 19.399 20.9778 18.8647C20.7381 18.3943 20.3546 18.0122 19.8842 17.7725C19.3495 17.5 18.6504 17.5 17.2502 17.5H12.7502C11.3501 17.5 10.6495 17.5 10.1147 17.7725C9.64434 18.0122 9.26217 18.3943 9.02248 18.8647C8.75 19.3995 8.75 20.1001 8.75 21.5002V26.25M18.75 8.75H11.25" stroke="#475F30" stroke-width="2" stroke-linecap="round" stroke-linejoin="round"/>
</svg>
