<svg width="28" height="18" viewBox="0 0 28 18" fill="none" xmlns="http://www.w3.org/2000/svg">
<path d="M9.27269 16.3635C10.5781 16.3635 11.6363 15.3053 11.6363 13.9999C11.6363 12.6944 10.5781 11.6362 9.27269 11.6362C7.96729 11.6362 6.90906 12.6944 6.90906 13.9999C6.90906 15.3053 7.96729 16.3635 9.27269 16.3635Z" stroke="white" stroke-width="2" stroke-miterlimit="1.5" stroke-linecap="round" stroke-linejoin="round"/>
<path d="M21.0909 16.3635C22.3963 16.3635 23.4545 15.3053 23.4545 13.9999C23.4545 12.6944 22.3963 11.6362 21.0909 11.6362C19.7854 11.6362 18.7272 12.6944 18.7272 13.9999C18.7272 15.3053 19.7854 16.3635 21.0909 16.3635Z" stroke="white" stroke-width="2" stroke-miterlimit="1.5" stroke-linecap="round" stroke-linejoin="round"/>
<path d="M11.6955 14H17.5455V1.70909C17.5455 1.31747 17.228 1 16.8364 1H1" stroke="white" stroke-width="2" stroke-linecap="round"/>
<path d="M6.49547 14H4.07274C3.68112 14 3.36365 13.6826 3.36365 13.2909V7.5" stroke="white" stroke-width="2" stroke-linecap="round"/>
<path d="M2.18182 4.54565H6.9091" stroke="white" stroke-width="2" stroke-linecap="round" stroke-linejoin="round"/>
<path d="M17.5455 4.54565H24.1756C24.4558 4.54565 24.7098 4.71068 24.8236 4.96676L26.9389 9.72627C26.9792 9.81704 27 9.91513 27 10.0143V13.2911C27 13.6828 26.6826 14.0002 26.2909 14.0002H24.0455" stroke="white" stroke-width="2" stroke-linecap="round"/>
<path d="M17.5455 14H18.7273" stroke="white" stroke-width="2" stroke-linecap="round"/>
</svg>
