<svg width="35" height="35" viewBox="0 0 35 35" fill="none" xmlns="http://www.w3.org/2000/svg">
<path d="M19.8342 30.736L27.7971 26.1386C28.6471 25.6478 29.0713 25.4024 29.3804 25.0591C29.6539 24.7553 29.8607 24.3976 29.987 24.0088C30.1294 23.5705 30.1294 23.0807 30.1294 22.1038V12.8956C30.1294 11.9187 30.1294 11.4289 29.987 10.9906C29.8607 10.6019 29.6539 10.2438 29.3804 9.94004C29.0726 9.59822 28.6494 9.35387 27.8066 8.86733L19.8328 4.26361C18.9827 3.77283 18.5585 3.52795 18.1067 3.4319C17.7069 3.34692 17.2935 3.34692 16.8937 3.4319C16.4419 3.52795 16.0163 3.77283 15.1662 4.26361L7.20188 8.86183C6.35283 9.35203 5.92864 9.59694 5.61971 9.94004C5.34621 10.2438 5.13966 10.6019 5.01336 10.9906C4.87061 11.4299 4.87061 11.921 4.87061 12.9025V22.0973C4.87061 23.0788 4.87061 23.5695 5.01336 24.0088C5.13966 24.3976 5.34621 24.7553 5.61971 25.0591C5.92882 25.4024 6.35333 25.6478 7.20337 26.1386L15.1662 30.736C16.0163 31.2267 16.4419 31.4717 16.8937 31.5678C17.2935 31.6528 17.7069 31.6528 18.1067 31.5678C18.5585 31.4717 18.9842 31.2267 19.8342 30.736Z" stroke="white" stroke-width="2" stroke-linecap="round" stroke-linejoin="round"/>
<path d="M13.125 17.4997C13.125 19.9159 15.0838 21.8747 17.5 21.8747C19.9162 21.8747 21.875 19.9159 21.875 17.4997C21.875 15.0834 19.9162 13.1247 17.5 13.1247C15.0838 13.1247 13.125 15.0834 13.125 17.4997Z" stroke="white" stroke-width="2" stroke-linecap="round" stroke-linejoin="round"/>
</svg>
