<svg width="40" height="40" viewBox="0 0 40 40" fill="none" xmlns="http://www.w3.org/2000/svg">
<path d="M13.3334 13.3334H11.2956C9.12955 13.3334 8.04743 13.3334 7.27704 13.7753C6.60098 14.163 6.08131 14.7756 5.80994 15.5062C5.5009 16.3382 5.67878 17.4056 6.03443 19.5395L6.03518 19.5435L7.59073 28.8768C7.85461 30.4601 7.98742 31.2521 8.38247 31.8461C8.7307 32.3698 9.21953 32.7838 9.79331 33.0412C10.4442 33.3332 11.2465 33.3334 12.8516 33.3334H27.1489C28.754 33.3334 29.5557 33.3332 30.2066 33.0412C30.7804 32.7838 31.2696 32.3698 31.6179 31.8461C32.0129 31.2521 32.145 30.4601 32.4089 28.8768L33.9644 19.5435L33.9659 19.537C34.3213 17.4047 34.4991 16.3379 34.1902 15.5062C33.9188 14.7756 33.4004 14.163 32.7243 13.7753C31.9539 13.3334 30.8701 13.3334 28.704 13.3334H26.6667M13.3334 13.3334H26.6667M13.3334 13.3334C13.3334 9.65146 16.3181 6.66669 20 6.66669C23.6819 6.66669 26.6667 9.65146 26.6667 13.3334" stroke="white" stroke-width="2" stroke-linecap="round" stroke-linejoin="round"/>
</svg>
