<svg width="40" height="40" viewBox="0 0 40 40" fill="none" xmlns="http://www.w3.org/2000/svg">
<path d="M20.5017 38C18.1397 38 15.846 37.5386 13.689 36.626C11.6039 35.7441 9.73406 34.4795 8.12745 32.873C6.52085 31.2666 5.25608 29.397 4.37416 27.312C3.46147 25.1553 3 22.8618 3 20.5C3 19.8198 3.55035 19.2695 4.23059 19.2695C4.91083 19.2695 5.46118 19.8198 5.46118 20.5C5.46118 22.5303 5.8577 24.499 6.64391 26.355C7.40277 28.146 8.48638 29.7559 9.86737 31.1367C11.2484 32.5176 12.8584 33.6045 14.6496 34.3599C16.5023 35.1426 18.4712 35.5391 20.5017 35.5391C22.5322 35.5391 24.5011 35.1426 26.3573 34.3564C28.1485 33.5977 29.7585 32.5142 31.1395 31.1333C32.5205 29.7524 33.6075 28.1426 34.3629 26.3516C35.1457 24.499 35.5422 22.5303 35.5422 20.5C35.5422 18.4697 35.1457 16.501 34.3595 14.645C33.6032 12.8583 32.5087 11.2346 31.136 9.86328C29.7661 8.48897 28.1419 7.39426 26.3538 6.64014C24.5011 5.85742 22.5322 5.46094 20.5017 5.46094C19.8215 5.46094 19.2711 4.91064 19.2711 4.23047C19.2711 3.55029 19.8215 3 20.5017 3C22.8638 3 25.1574 3.46143 27.3144 4.37402C29.3996 5.25586 31.2694 6.52051 32.876 8.12695C34.4826 9.7334 35.7439 11.6064 36.6258 13.688C37.5385 15.8447 38 18.1382 38 20.5C38 22.8618 37.5385 25.1553 36.6258 27.312C35.7473 29.397 34.4826 31.2666 32.876 32.873C31.2694 34.4795 29.3961 35.7407 27.3144 36.6226C25.1574 37.5386 22.8638 38 20.5017 38Z" fill="white" stroke="white"/>
</svg>
