<svg width="30" height="30" viewBox="0 0 30 30" fill="none" xmlns="http://www.w3.org/2000/svg">
<path d="M27.2727 0H2.72727C1.22045 0 0 1.22045 0 2.72727V27.2727C0 28.7795 1.22045 30 2.72727 30H27.2727C28.7795 30 30 28.7795 30 27.2727V2.72727C30 1.22045 28.7782 0 27.2727 0ZM25.485 12.9191C25.3077 12.9355 25.1291 12.9464 24.9491 12.9464C22.9105 12.9464 21.1186 11.8991 20.0755 10.3132C20.0755 14.4709 20.0755 19.2027 20.0755 19.2818C20.0755 22.9432 17.1068 25.9105 13.4468 25.9105C9.78682 25.9091 6.81818 22.9405 6.81818 19.2805C6.81818 15.6191 9.78682 12.6518 13.4468 12.6518C13.5859 12.6518 13.7209 12.6641 13.8559 12.6723V15.9395C13.7195 15.9232 13.5873 15.8986 13.4468 15.8986C11.5786 15.8986 10.0636 17.4136 10.0636 19.2818C10.0636 21.15 11.5773 22.665 13.4468 22.665C15.3164 22.665 16.9664 21.1923 16.9664 19.3241C16.9664 19.2491 16.9991 4.09227 16.9991 4.09227H20.1205C20.4136 6.88364 22.6677 9.08727 25.485 9.28909V12.9191Z" fill="white"/>
</svg>
